PathFileType	4	(X/Y/Z)	 control3min.trc
DataRate	CameraRate	NumFrames	NumMarkers	Units	OrigDataRate	OrigDataStartFrame	OrigNumFrames
200	200	8	39	m	200	126	1000
Frame#	Time	C7			LSH			RSH			MAN			RASI			LASI			HIPR			HIPL			RPSI			LPSI			COX			RTHI1			RTHI2			RTHI3			RTHI4			RLKN			RMKN			RSHA1			RSHA2			RSHA3			RSHA4			RHEEL			RMET5			RMET1			RTOE			LTHI1			LTHI2			LTHI3			LTHI4			LLKN			LMKN			LSHA1			LSHA2			LSHA3			LSHA4			LHEEL			LMET5			LMET1			LTOE			
		X1	Y1	Z1	X2	Y2	Z2	X3	Y3	Z3	X4	Y4	Z4	X5	Y5	Z5	X6	Y6	Z6	X7	Y7	Z7	X8	Y8	Z8	X9	Y9	Z9	X10	Y10	Z10	X11	Y11	Z11	X12	Y12	Z12	X13	Y13	Z13	X14	Y14	Z14	X15	Y15	Z15	X16	Y16	Z16	X17	Y17	Z17	X18	Y18	Z18	X19	Y19	Z19	X20	Y20	Z20	X21	Y21	Z21	X22	Y22	Z22	X23	Y23	Z23	X24	Y24	Z24	X25	Y25	Z25	X26	Y26	Z26	X27	Y27	Z27	X28	Y28	Z28	X29	Y29	Z29	X30	Y30	Z30	X31	Y31	Z31	X32	Y32	Z32	X33	Y33	Z33	X34	Y34	Z34	X35	Y35	Z35	X36	Y36	Z36	X37	Y37	Z37	X38	Y38	Z38	X39	Y39	Z39	
126	0.6300	-0.282533	1.532325	-0.522072	-0.239178	1.513669	-0.711082	-0.234249	1.517144	-0.337344	-0.134023	1.486959	-0.532149	-0.135671	1.014966	-0.415403	-0.149208	1.021981	-0.650705	-0.206704	1.095831	-0.361949	-0.214902	1.108340	-0.689760	-0.315493	1.078103	-0.485493	-0.317568	1.083250	-0.563421	-0.318020	1.077511	-0.523516	-0.224872	0.841110	-0.333167	-0.211692	0.783428	-0.327832	-0.147810	0.795995	-0.331910	-0.154367	0.856722	-0.338510	-0.208747	0.508334	-0.350218	-0.192225	0.500102	-0.475134	-0.278488	0.358823	-0.330510	-0.300010	0.322429	-0.339858	-0.244608	0.298703	-0.347665	-0.227453	0.335312	-0.342203	-0.377088	0.135343	-0.411691	-0.232969	0.039228	-0.351099	-0.187477	0.049035	-0.421611	-0.160873	0.038568	-0.418393	-0.259002	0.821175	-0.717504	-0.234884	0.764136	-0.722380	-0.174394	0.784732	-0.732389	-0.189480	0.843242	-0.728060	-0.216707	0.526724	-0.705548	-0.205540	0.514446	-0.580536	-0.314554	0.316243	-0.710854	-0.328802	0.279248	-0.702244	-0.269040	0.261614	-0.709485	-0.262428	0.304039	-0.717750	-0.386425	0.122762	-0.642168	-0.238447	0.043478	-0.712370	-0.192322	0.052881	-0.646266	-0.164672	0.039297	-0.652701	
127	0.6350	-0.282096	1.527911	-0.522121	-0.238765	1.509030	-0.711299	-0.233737	1.512600	-0.337310	-0.133725	1.482231	-0.532299	-0.136269	1.010703	-0.415393	-0.149533	1.017579	-0.650799	-0.207156	1.091336	-0.361927	-0.215062	1.103943	-0.689979	-0.315937	1.073762	-0.485529	-0.317951	1.079016	-0.563479	-0.318414	1.073243	-0.523583	-0.224949	0.836480	-0.333454	-0.211474	0.778888	-0.328097	-0.147663	0.791789	-0.332023	-0.154548	0.852464	-0.338652	-0.206774	0.503872	-0.349977	-0.190733	0.495859	-0.474931	-0.278169	0.355150	-0.330472	-0.300232	0.319024	-0.339773	-0.245056	0.294651	-0.347914	-0.227454	0.331022	-0.342524	-0.379567	0.131869	-0.412032	-0.233859	0.038491	-0.350695	-0.187896	0.048968	-0.421154	-0.161004	0.038394	-0.418284	-0.258774	0.816432	-0.717546	-0.234396	0.759491	-0.722414	-0.174003	0.780351	-0.732382	-0.189342	0.838793	-0.728021	-0.214824	0.522253	-0.706219	-0.204005	0.510072	-0.581263	-0.315043	0.312850	-0.711228	-0.329808	0.276017	-0.702495	-0.270270	0.257721	-0.709659	-0.263057	0.300036	-0.718069	-0.388671	0.119071	-0.642567	-0.239006	0.042141	-0.713009	-0.192779	0.052375	-0.646105	-0.164720	0.038762	-0.652118	
128	0.6400	-0.281677	1.523298	-0.522153	-0.238351	1.504170	-0.711541	-0.233246	1.507833	-0.337275	-0.133392	1.477306	-0.532436	-0.136873	1.006235	-0.415378	-0.149893	1.012964	-0.650860	-0.207617	1.086624	-0.361883	-0.215220	1.099255	-0.690230	-0.316417	1.069222	-0.485535	-0.318371	1.074579	-0.563518	-0.318858	1.068777	-0.523634	-0.225076	0.831680	-0.333768	-0.211276	0.774165	-0.328334	-0.147538	0.787410	-0.332147	-0.154765	0.848031	-0.338840	-0.204697	0.499242	-0.349682	-0.188985	0.491382	-0.474647	-0.277914	0.351431	-0.330473	-0.300688	0.315269	-0.340059	-0.245599	0.290514	-0.348120	-0.227510	0.326602	-0.342860	-0.382064	0.128385	-0.412314	-0.234862	0.037846	-0.350232	-0.188500	0.048955	-0.420771	-0.161347	0.038221	-0.418071	-0.258539	0.811427	-0.717613	-0.233899	0.754609	-0.722530	-0.173601	0.775749	-0.732421	-0.189211	0.834122	-0.728003	-0.212874	0.517612	-0.706962	-0.202160	0.505482	-0.582117	-0.315647	0.309393	-0.711508	-0.330996	0.272739	-0.702543	-0.271682	0.253732	-0.709819	-0.263839	0.295932	-0.718403	-0.390980	0.115338	-0.642897	-0.239644	0.041052	-0.713685	-0.193380	0.052087	-0.645989	-0.164895	0.038457	-0.651649	
129	0.6450	-0.281271	1.518509	-0.522170	-0.237931	1.499103	-0.711815	-0.232781	1.502855	-0.337228	-0.133025	1.472198	-0.532559	-0.137479	1.001572	-0.415360	-0.150296	1.008155	-0.650887	-0.208105	1.081709	-0.361825	-0.215380	1.094291	-0.690516	-0.316933	1.064475	-0.485524	-0.318801	1.069912	-0.563577	-0.319319	1.064084	-0.523663	-0.225230	0.826693	-0.334052	-0.211110	0.769262	-0.328521	-0.147446	0.782876	-0.332263	-0.155028	0.843436	-0.339066	-0.202574	0.494496	-0.349379	-0.186997	0.486690	-0.474292	-0.277668	0.347684	-0.330498	-0.301076	0.311712	-0.340290	-0.246158	0.286341	-0.348260	-0.227565	0.322137	-0.343147	-0.384487	0.124884	-0.412479	-0.235915	0.037222	-0.349747	-0.189234	0.048911	-0.420488	-0.161867	0.038069	-0.417805	-0.258296	0.806193	-0.717703	-0.233389	0.749517	-0.722738	-0.173188	0.770955	-0.732539	-0.189084	0.829246	-0.728026	-0.210867	0.512835	-0.707764	-0.200006	0.500702	-0.583079	-0.316256	0.305868	-0.711732	-0.332166	0.269442	-0.702495	-0.273148	0.249655	-0.709994	-0.264641	0.291748	-0.718734	-0.393259	0.111590	-0.643122	-0.240341	0.040152	-0.714328	-0.194101	0.051883	-0.645947	-0.165217	0.038239	-0.651362	
130	0.6500	-0.280868	1.513604	-0.522160	-0.237532	1.493847	-0.712135	-0.232349	1.497705	-0.337165	-0.132624	1.466926	-0.532667	-0.138092	0.996736	-0.415334	-0.150741	1.003167	-0.650884	-0.208632	1.076604	-0.361752	-0.215559	1.089059	-0.690839	-0.317491	1.059532	-0.485514	-0.319244	1.065032	-0.563662	-0.319806	1.059175	-0.523682	-0.225441	0.821570	-0.334322	-0.210977	0.764203	-0.328634	-0.147391	0.778203	-0.332337	-0.155340	0.838701	-0.339309	-0.200464	0.489666	-0.349111	-0.184808	0.481822	-0.473880	-0.277367	0.343923	-0.330521	-0.301382	0.308153	-0.340438	-0.246638	0.282163	-0.348329	-0.227550	0.317685	-0.343356	-0.386780	0.121340	-0.412526	-0.236902	0.036590	-0.349270	-0.189998	0.048854	-0.420306	-0.162387	0.037958	-0.417621	-0.258046	0.800765	-0.717817	-0.232863	0.744245	-0.723019	-0.172769	0.765994	-0.732763	-0.188960	0.824194	-0.728112	-0.208808	0.507961	-0.708613	-0.197564	0.495756	-0.584124	-0.316737	0.302285	-0.711938	-0.333193	0.266094	-0.702457	-0.274481	0.245533	-0.710157	-0.265327	0.287501	-0.719043	-0.395419	0.107851	-0.643222	-0.241046	0.039385	-0.714903	-0.194864	0.051697	-0.645940	-0.165634	0.038059	-0.651241	
131	0.6550	-0.280486	1.508552	-0.522145	-0.237159	1.488428	-0.712496	-0.231952	1.492382	-0.337080	-0.132217	1.461496	-0.532771	-0.138703	0.991740	-0.415313	-0.151235	0.998021	-0.650855	-0.209211	1.071315	-0.361671	-0.215769	1.083577	-0.691200	-0.318095	1.054397	-0.485512	-0.319748	1.059959	-0.563756	-0.320350	1.054067	-0.523715	-0.225705	0.816295	-0.334554	-0.210883	0.759013	-0.328661	-0.147382	0.773409	-0.332337	-0.155707	0.833842	-0.339529	-0.198385	0.484804	-0.348882	-0.182479	0.476827	-0.473419	-0.276947	0.340146	-0.330535	-0.301558	0.304612	-0.340513	-0.246966	0.277994	-0.348341	-0.227405	0.313272	-0.343504	-0.388889	0.117708	-0.412503	-0.237729	0.036004	-0.348769	-0.190654	0.048795	-0.420217	-0.162794	0.037860	-0.417532	-0.257784	0.795173	-0.717956	-0.232318	0.738818	-0.723375	-0.172346	0.760900	-0.733113	-0.188838	0.819001	-0.728280	-0.206704	0.503033	-0.709488	-0.194863	0.490692	-0.585232	-0.316962	0.298652	-0.712162	-0.333951	0.262703	-0.702508	-0.275501	0.241368	-0.710270	-0.265747	0.283227	-0.719321	-0.397408	0.104139	-0.643205	-0.241721	0.038746	-0.715437	-0.195560	0.051547	-0.645913	-0.166015	0.037927	-0.651159	
132	0.6600	-0.280112	1.503437	-0.522127	-0.236814	1.482877	-0.712892	-0.231603	1.486938	-0.336978	-0.131785	1.455946	-0.532866	-0.139317	0.986601	-0.415296	-0.151775	0.992740	-0.650796	-0.209850	1.065858	-0.361578	-0.216021	1.077864	-0.691598	-0.318762	1.049086	-0.485531	-0.320324	1.054709	-0.563864	-0.320968	1.048773	-0.523763	-0.226014	0.810895	-0.334741	-0.210829	0.753718	-0.328609	-0.147414	0.768518	-0.332222	-0.156120	0.828881	-0.339679	-0.196346	0.479931	-0.348688	-0.180066	0.471757	-0.472916	-0.276353	0.336329	-0.330537	-0.301538	0.301007	-0.340463	-0.247077	0.273823	-0.348332	-0.227086	0.308889	-0.343610	-0.390784	0.113999	-0.412495	-0.238361	0.035499	-0.348233	-0.191150	0.048718	-0.420142	-0.163058	0.037771	-0.417423	-0.257506	0.789447	-0.718129	-0.231740	0.733246	-0.723757	-0.171923	0.755711	-0.733597	-0.188720	0.813692	-0.728545	-0.204544	0.498100	-0.710377	-0.191941	0.485548	-0.586378	-0.316822	0.294993	-0.712424	-0.334315	0.259292	-0.702635	-0.276123	0.237197	-0.710354	-0.265792	0.278951	-0.719539	-0.399189	0.100476	-0.643074	-0.242313	0.038224	-0.715925	-0.196115	0.051424	-0.645872	-0.166306	0.037817	-0.651121	
133	0.6650	-0.279723	1.498291	-0.522103	-0.236502	1.477220	-0.713315	-0.231306	1.481403	-0.336868	-0.131338	1.450288	-0.532961	-0.139964	0.981359	-0.415293	-0.152365	0.987352	-0.650719	-0.210554	1.060251	-0.361470	-0.216333	1.071938	-0.692021	-0.319502	1.043628	-0.485578	-0.320984	1.049297	-0.563978	-0.321670	1.043313	-0.523836	-0.226348	0.805384	-0.334871	-0.210799	0.748343	-0.328483	-0.147482	0.763556	-0.331987	-0.156575	0.823838	-0.339726	-0.194354	0.475053	-0.348515	-0.177619	0.466663	-0.472385	-0.275548	0.332435	-0.330540	-0.301118	0.297608	-0.340126	-0.246926	0.269628	-0.348344	-0.226559	0.304513	-0.343712	-0.392462	0.110285	-0.412560	-0.238823	0.035069	-0.347726	-0.191507	0.048623	-0.420015	-0.163187	0.037688	-0.417257	-0.257209	0.783613	-0.718315	-0.231143	0.727581	-0.724208	-0.171498	0.750448	-0.734203	-0.188611	0.808301	-0.728935	-0.202313	0.493204	-0.711257	-0.188841	0.480361	-0.587536	-0.316255	0.291340	-0.712712	-0.334168	0.255859	-0.702900	-0.276243	0.233064	-0.710368	-0.265391	0.274702	-0.719655	-0.400745	0.096900	-0.642768	-0.242791	0.037796	-0.716339	-0.196500	0.051302	-0.645837	-0.166494	0.037706	-0.651143	
